<?xml version="1.0" encoding="UTF-8"?><svg id="Calque_1" xmlns="http://www.w3.org/2000/svg" xmlns:xlink="http://www.w3.org/1999/xlink" viewBox="0 0 467.71 410.67"><defs><style>.cls-1{filter:url(#drop-shadow-2);}.cls-2{stroke-width:0px;}</style><filter id="drop-shadow-2" filterUnits="userSpaceOnUse"><feOffset dx="2" dy="2"/><feGaussianBlur result="blur" stdDeviation="3"/><feFlood flood-color="#000" flood-opacity=".75"/><feComposite in2="blur" operator="in"/><feComposite in="SourceGraphic"/></filter></defs><path class="cls-2" d="m433.37,167.87c-12.84,0-22.02,10.64-22.02,24.58,0-13.95-9.17-24.58-22.01-24.58,12.48,0,22.01-12.11,22.01-25.69,0,13.58,9.54,25.69,22.02,25.69Z"/><g class="cls-1"><path class="cls-2" d="m239.29,94.51c19.31-10.04,51.14-22.53,89.29-18.78,13.64,1.34,25.53,9.91,25.53,21.36,0,14.43-8.08,32.9-50.22,43.29-42.14,10.39-79.08-4.04-95.24-15.01-49.94-33.89-73.26-55.36-103.46-55.36-36.88,0-48.58,23.04-48.58,38.23,0,16.7,8.78,36.69,36.29,36.69s33.96-20.26,28.16-31.96c1.48,10.62-.7,21.58-19.98,21.58s-24.51-18.37-24.51-29.77c0-13.96,6.1-31.39,29.24-31.39,34.8,0,86.56,46.6,105.76,57.17,18.45,10.16,43.96,20.12,77.76,20.12,43.62,0,85.67-27.88,85.67-54.65,0-14.7-15.61-27.71-47.67-27.71-47.38,0-90.09,21.65-90.09,21.65"/><path class="cls-2" d="m393.83,200.31c0-29.05-26.27-27.98-58.81,17.26-26.24,36.49-38.52,80.79-78,105.31-39.48,24.52-127,13.52-127-68.99,0-68.99,52.07-140.64,151.77-179.44-33.67,7.77-167.84,53.88-167.84,183.06,0,79.62,71,91.56,83.92,91.56s65.14,6.54,108.27-72.18c45.85-83.68,87.04-102.15,87.04-76.62"/></g></svg>